# Rhino

mtllib eraser.mtl
g object_1
usemtl Default
v -0.03867996856570244 1.543865442276001 -0.004352235235273838
v 0.009572352282702923 1.543865442276001 -0.004352235235273838
v 0.05782467126846314 1.543865442276001 -0.004352235235273838
v -0.03867996856570244 1.73687469959259 -0.004352235235273838
v -0.03867996856570244 1.640370011329651 -0.004352235235273838
v 0.05782467126846314 1.73687469959259 -0.004352235235273838
v 0.009572352282702923 1.73687469959259 -0.004352235235273838
v 0.05782467126846314 1.640370011329651 -0.004352235235273838
v -0.03867996856570244 1.543865442276001 -0.004352235235273838
v -0.03867996856570244 1.543865442276001 0.002431463450193405
v 0.05782467126846314 1.543865442276001 -0.004352235235273838
v 0.05782467126846314 1.543865442276001 0.002431463450193405
v 0.009572352282702923 1.543865442276001 0.002431463450193405
v 0.009572352282702923 1.543865442276001 -0.004352235235273838
v 0.05782467126846314 1.73687469959259 -0.004352235235273838
v 0.05782467126846314 1.73687469959259 0.002431463450193405
v -0.03867996856570244 1.73687469959259 -0.004352235235273838
v -0.03867996856570244 1.73687469959259 0.002431463450193405
v 0.009572352282702923 1.73687469959259 0.002431463450193405
v 0.009572352282702923 1.73687469959259 -0.004352235235273838
v -0.03867996856570244 1.572816848754883 0.0101757412776351
v 0.05782467126846314 1.572816848754883 0.0101757412776351
v -0.03867996856570244 1.707923293113709 0.0101757412776351
v 0.05782467126846314 1.707923293113709 0.0101757412776351
v -0.03867996856570244 1.707923293113709 0.0101757412776351
v -0.03867996856570244 1.73687469959259 0.002431463450193405
v 0.05782467126846314 1.707923293113709 0.0101757412776351
v 0.05782467126846314 1.73687469959259 0.002431463450193405
v 0.009572352282702923 1.73687469959259 0.002431463450193405
v -0.03867996856570244 1.543865442276001 0.002431463450193405
v 0.05782467126846314 1.543865442276001 0.002431463450193405
v -0.03867996856570244 1.572816848754883 0.0101757412776351
v 0.05782467126846314 1.572816848754883 0.0101757412776351
v 0.009572352282702923 1.543865442276001 0.002431463450193405
v 0.05782467126846314 1.543865442276001 -0.004352235235273838
v 0.05782467126846314 1.640370011329651 -0.004352235235273838
v 0.05782467126846314 1.73687469959259 -0.004352235235273838
v 0.05782467126846314 1.543865442276001 0.002431463450193405
v 0.05782467126846314 1.73687469959259 0.002431463450193405
v 0.05782467126846314 1.707923293113709 0.0101757412776351
v 0.05782467126846314 1.572816848754883 0.0101757412776351
v -0.03867996856570244 1.543865442276001 -0.004352235235273838
v -0.03867996856570244 1.640370011329651 -0.004352235235273838
v -0.03867996856570244 1.73687469959259 -0.004352235235273838
v -0.03867996856570244 1.543865442276001 0.002431463450193405
v -0.03867996856570244 1.73687469959259 0.002431463450193405
v -0.03867996856570244 1.707923293113709 0.0101757412776351
v -0.03867996856570244 1.572816848754883 0.0101757412776351
vt 0.9306142926216126 0.6175684928894043
vt 0.9306142926216126 0.8061658143997192
vt 0.9306142926216126 0.994763195514679
vt 0.1747887283563614 0.6175684928894043
vt 0.5527015328407288 0.6175684928894043
vt 0.1747887283563614 0.994763195514679
vt 0.1747887283563614 0.8061658143997192
vt 0.5527015328407288 0.994763195514679
vt 0.05176611989736557 0
vt 0.02661548182368279 0
vt 0.05176611989736557 0.3786308467388153
vt 0.02661548182368279 0.3786308467388153
vt 0.02661548182368279 0.1893154233694077
vt 0.05176611989736557 0.1893154233694077
vt 0.02515063807368279 0
vt 0 0
vt 0.02515063807368279 0.3786308467388153
vt 0 0.3786308467388153
vt 0 0.1893154233694077
vt 0.02515063807368279 0.1893154233694077
vt 0.1672304570674896 0.2351656705141068
vt 0.1672304570674896 0.6123316884040833
vt 0.697313666343689 0.2351656705141068
vt 0.697313666343689 0.6123316884040833
vt 0.1672304570674896 0.1175828352570534
vt 0.1672304570674896 0.2337008267641068
vt 0.5458613038063049 0.1175828352570534
vt 0.5458613038063049 0.2337008267641068
vt 0.3565458953380585 0.2337008267641068
vt 0.5458613038063049 0
vt 0.1672304570674896 0
vt 0.5458613038063049 0.1161179915070534
vt 0.1672304570674896 0.1161179915070534
vt 0.3565458953380585 0
vt 0.1657656133174896 0.007572617381811142
vt 0.1657656133174896 0.3862034678459168
vt 0.1657656133174896 0.7648342847824097
vt 0.1398341208696365 0.007572617381811142
vt 0.1398341208696365 0.7648342847824097
vt 0.1102307066321373 0.6512450575828552
vt 0.1102307066321373 0.1211618781089783
vt 0.1087658628821373 0.007572617381811142
vt 0.1087658628821373 0.3862034678459168
vt 0.1087658628821373 0.7648342847824097
vt 0.08283437788486481 0.007572617381811142
vt 0.08283437788486481 0.7648342847824097
vt 0.05323096364736557 0.6512450575828552
vt 0.05323096364736557 0.1211618781089783
vn 0 0 -1
vn 0 0 -1
vn 0 0 -1
vn 0 0 -1
vn 0 0 -1
vn 0 0 -1
vn 0 0 -1
vn 0 0 -1
vn 0 -1 0
vn 0 -1 0
vn 0 -1 0
vn 0 -1 0
vn 0 -1 0
vn 0 -1 0
vn 0 1 0
vn 0 1 0
vn 0 1 0
vn 0 1 0
vn 0 1 0
vn 0 1 0
vn 0 0 1
vn 0 0 1
vn 0 0 1
vn 0 0 1
vn 0 0.258407324552536 0.9660360813140869
vn 0 0.258407324552536 0.9660360813140869
vn 0 0.258407324552536 0.9660360813140869
vn 0 0.258407324552536 0.9660360813140869
vn 0 0.258407324552536 0.9660360813140869
vn 0 -0.258407324552536 0.9660360813140869
vn 0 -0.258407324552536 0.9660360813140869
vn 0 -0.258407324552536 0.9660360813140869
vn 0 -0.258407324552536 0.9660360813140869
vn 0 -0.258407324552536 0.9660360813140869
vn 1 0 0
vn 1 0 0
vn 1 0 0
vn 1 0 0
vn 1 0 0
vn 1 0 0
vn 1 0 0
vn -1 0 0
vn -1 0 0
vn -1 0 0
vn -1 0 0
vn -1 0 0
vn -1 0 0
vn -1 0 0
f 8/8/8 5/5/5 7/7/7
f 5/5/5 4/4/4 7/7/7
f 2/2/2 1/1/1 5/5/5
f 8/8/8 3/3/3 2/2/2
f 8/8/8 7/7/7 6/6/6
f 2/2/2 5/5/5 8/8/8
f 10/10/10 9/9/9 14/14/14 13/13/13
f 11/11/11 12/12/12 13/13/13 14/14/14
f 16/16/16 15/15/15 20/20/20 19/19/19
f 17/17/17 18/18/18 19/19/19 20/20/20
f 22/22/22 24/24/24 23/23/23 21/21/21
f 29/29/29 26/26/26 25/25/25
f 28/28/28 29/29/29 27/27/27
f 25/25/25 27/27/27 29/29/29
f 32/32/32 30/30/30 34/34/34
f 31/31/31 33/33/33 34/34/34
f 32/32/32 34/34/34 33/33/33
f 40/40/40 41/41/41 38/38/38 39/39/39
f 35/35/35 36/36/36 38/38/38
f 39/39/39 36/36/36 37/37/37
f 36/36/36 39/39/39 38/38/38
f 45/45/45 48/48/48 47/47/47 46/46/46
f 42/42/42 45/45/45 43/43/43
f 46/46/46 44/44/44 43/43/43
f 43/43/43 45/45/45 46/46/46
